<?xml version="1.0" encoding="UTF-8"?>
<svg aria-hidden="true" focusable="false" xmlns="http://www.w3.org/2000/svg" viewBox="0 0 448 512">
<rect x="15" y="15" width="418" height="482" ry="4" fill="none" stroke="currentColor" stroke-linejoin="round" stroke-width="30"/>
<path fill="currentColor" d="m 199.18531,239.33341 v 33.33318 q 0,29.62949 -17.18511,56.74048 -17.03696,27.11098 -48.88866,27.11098 -18.37029,0 -31.11097,-7.99996 Q 89.408034,340.36998 78.000679,318.74045 66.741472,296.96277 66.741472,272.66659 v -33.33318 q 0,-29.48135 17.036958,-56.59233 17.03696,-27.25913 48.88866,-27.25913 18.22214,0 30.81468,7.99996 12.74068,7.99996 24.14803,29.77764 11.55551,21.62953 11.55551,46.07386 z m -30.51838,0 q 0,-24.74063 -13.77772,-43.25906 -7.85181,-10.22217 -22.07397,-10.22217 -13.77771,0 -22.51841,11.2592 -13.185129,17.03696 -13.185129,42.22203 v 33.33318 q 0,24.88877 13.925859,43.25906 7.70367,10.22217 22.07398,10.22217 13.62956,0 22.37026,-11.2592 13.18513,-17.03696 13.18513,-42.22203 z" />
<path fill="currentColor" d="M 330.2958,155.48195 V 321.7034 h 30.66653 q 10.96291,0 15.55548,4.29628 4.74072,4.14812 4.74072,10.96291 0,6.66663 -4.74072,10.96291 -4.59257,4.14813 -15.55548,4.14813 h -91.70328 q -10.96291,0 -15.70363,-4.14813 -4.59257,-4.29628 -4.59257,-11.11106 0,-6.66664 4.59257,-10.81476 4.74072,-4.29628 15.70363,-4.29628 h 30.66652 V 195.03732 l -27.11098,7.11108 q -6.51849,1.77777 -9.77773,1.77777 -5.77776,0 -10.07403,-4.59258 -4.14813,-4.59257 -4.14813,-11.2592 0,-6.07405 3.1111,-9.48144 3.11109,-3.55554 13.03697,-6.22219 z" />
</svg>
