<?xml version="1.0" encoding="UTF-8"?>
<svg aria-hidden="true" focusable="false" xmlns="http://www.w3.org/2000/svg" viewBox="0 0 448 512">
<path fill="currentColor" d="m 145.3337,144.5258 q -0.88888,8.59255 -5.03701,12.59253 -3.99998,3.85184 -10.22218,3.85184 -6.66663,0 -10.96291,-4.59257 -4.14813,-4.74072 -4.14813,-15.70364 v -17.03695 q 35.99983,-13.77772 43.40721,-21.18509 7.40737,-7.407375 7.40737,-15.111043 0,-10.814765 -8.7407,-18.666581 -8.59255,-7.851815 -24.44433,-7.851815 -16.74066,0 -32.29615,7.703668 v 4.444424 q 0,10.814765 -4.296275,15.555484 -4.148129,4.592571 -10.962912,4.592571 -6.666636,0 -10.962913,-4.592571 -4.148129,-4.592572 -4.148129,-15.555484 V 48.526241 Q 93.185793,37.563329 106.07462,34.00779 q 12.88883,-3.555539 26.66655,-3.555539 28.7406,0 46.07386,16.592516 17.33325,16.592516 17.33325,41.629437 0,17.777696 -10.51847,30.222086 -10.37032,12.44438 -40.29611,25.62951 z m 6.37034,58.66639 q 0,6.96293 -5.03701,11.40736 -4.88887,4.29627 -16.44437,4.29627 -11.5555,0 -16.59252,-4.29627 -4.88886,-4.44443 -4.88886,-11.40736 0,-6.96293 4.88886,-11.2592 4.88887,-4.44443 16.59252,-4.44443 11.5555,0 16.44437,4.44443 5.03701,4.29627 5.03701,11.2592 z" />
<path fill="currentColor" d="m 327.25878,144.5258 q -0.88889,8.59255 -5.03701,12.59253 -3.99999,3.85184 -10.22218,3.85184 -6.66663,0 -10.96291,-4.59257 -4.14813,-4.74072 -4.14813,-15.70364 v -17.03695 q 35.99983,-13.77772 43.40721,-21.18509 7.40737,-7.407375 7.40737,-15.111043 0,-10.814765 -8.7407,-18.666581 -8.59255,-7.851815 -24.44433,-7.851815 -16.74067,0 -32.29615,7.703668 v 4.444424 q 0,10.814765 -4.29628,15.555484 -4.14812,4.592571 -10.96291,4.592571 -6.66663,0 -10.96291,-4.592571 -4.14813,-4.592572 -4.14813,-15.555484 V 48.526241 q 23.25915,-10.962912 36.14798,-14.518451 12.88883,-3.555539 26.66655,-3.555539 28.7406,0 46.07386,16.592516 17.33325,16.592516 17.33325,41.629437 0,17.777696 -10.51847,30.222086 -10.37032,12.44438 -40.29611,25.62951 z m 6.37034,58.66639 q 0,6.96293 -5.03701,11.40736 -4.88887,4.29627 -16.44437,4.29627 -11.5555,0 -16.59252,-4.29627 -4.88886,-4.44443 -4.88886,-11.40736 0,-6.96293 4.88886,-11.2592 4.88887,-4.44443 16.59252,-4.44443 11.5555,0 16.44437,4.44443 5.03701,4.29627 5.03701,11.2592 z" />
<path fill="currentColor" d="m 145.3337,407.17773 q -0.88888,8.59255 -5.03701,12.59254 -3.99998,3.85183 -10.22218,3.85183 -6.66663,0 -10.96291,-4.59257 -4.14813,-4.74072 -4.14813,-15.70363 v -17.03696 q 35.99983,-13.77772 43.40721,-21.18509 7.40737,-7.40737 7.40737,-15.11104 0,-10.81476 -8.7407,-18.66658 -8.59255,-7.85182 -24.44433,-7.85182 -16.74066,0 -32.29615,7.70367 v 4.44443 q 0,10.81476 -4.296275,15.55548 -4.148129,4.59257 -10.962912,4.59257 -6.666636,0 -10.962913,-4.59257 -4.148129,-4.59257 -4.148129,-15.55548 v -24.44434 q 23.259152,-10.96291 36.147979,-14.51845 12.88883,-3.55554 26.66655,-3.55554 28.7406,0 46.07386,16.59252 17.33325,16.59252 17.33325,41.62944 0,17.77769 -10.51847,30.22208 -10.37032,12.44439 -40.29611,25.62951 z m 6.37034,58.6664 q 0,6.96293 -5.03701,11.40735 -4.88887,4.29628 -16.44437,4.29628 -11.5555,0 -16.59252,-4.29628 -4.88886,-4.44442 -4.88886,-11.40735 0,-6.96293 4.88886,-11.25921 4.88887,-4.44442 16.59252,-4.44442 11.5555,0 16.44437,4.44442 5.03701,4.29628 5.03701,11.25921 z" />
<path fill="currentColor" d="m 327.25878,407.17773 q -0.88889,8.59255 -5.03701,12.59254 -3.99999,3.85183 -10.22218,3.85183 -6.66663,0 -10.96291,-4.59257 -4.14813,-4.74072 -4.14813,-15.70363 v -17.03696 q 35.99983,-13.77772 43.40721,-21.18509 7.40737,-7.40737 7.40737,-15.11104 0,-10.81476 -8.7407,-18.66658 -8.59255,-7.85182 -24.44433,-7.85182 -16.74067,0 -32.29615,7.70367 v 4.44443 q 0,10.81476 -4.29628,15.55548 -4.14812,4.59257 -10.96291,4.59257 -6.66663,0 -10.96291,-4.59257 -4.14813,-4.59257 -4.14813,-15.55548 v -24.44434 q 23.25915,-10.96291 36.14798,-14.51845 12.88883,-3.55554 26.66655,-3.55554 28.7406,0 46.07386,16.59252 17.33325,16.59252 17.33325,41.62944 0,17.77769 -10.51847,30.22208 -10.37032,12.44439 -40.29611,25.62951 z m 6.37034,58.6664 q 0,6.96293 -5.03701,11.40735 -4.88887,4.29628 -16.44437,4.29628 -11.5555,0 -16.59252,-4.29628 -4.88886,-4.44442 -4.88886,-11.40735 0,-6.96293 4.88886,-11.25921 4.88887,-4.44442 16.59252,-4.44442 11.5555,0 16.44437,4.44442 5.03701,4.29628 5.03701,11.25921 z" />
</svg>
