<?xml version="1.0" encoding="UTF-8"?>
<svg aria-hidden="true" focusable="false" xmlns="http://www.w3.org/2000/svg" viewBox="0 0 448 512">
<rect x="15" y="15" width="418" height="482" ry="4" fill="none" stroke="currentColor" stroke-linejoin="round" stroke-width="30"/>
<path fill= "currentColor" d="m 154.64278,272.57468 q -11.40736,9.77773 -20.8888,13.92586 -9.48143,3.99998 -19.9999,3.99998 -24.44434,0 -42.814621,-19.55546 -18.222138,-19.55547 -18.222138,-48.59237 0,-22.66656 12.592534,-41.185 17.185105,-25.48136 48.444225,-25.48136 22.37026,0 39.11093,13.48142 16.74066,13.33327 24.59248,38.66649 7.85181,25.18507 7.85181,52.59235 0,46.5183 -35.99983,74.66632 -27.85173,21.62953 -61.03676,21.62953 -18.370284,0 -28.444311,-7.40737 -6.814784,-4.88887 -6.814784,-12.88883 0,-6.51849 4.296277,-10.81477 4.444424,-4.44442 10.814765,-4.44442 3.555539,0 7.999963,2.22221 5.77775,2.96295 12.14809,2.96295 22.96286,0 42.37018,-15.55548 19.40731,-15.70364 23.99989,-38.22205 z m -4.29628,-47.85163 q -4.88887,-21.03694 -14.51845,-29.77764 -9.48144,-8.88885 -21.77768,-8.88885 -12.88883,0 -21.92582,9.92588 -9.037,9.77773 -9.037,26.07395 0,17.03696 9.037,27.55543 9.18514,10.51847 20.88879,10.51847 20.5925,0 37.33316,-35.40724 z" />
<path fill= "currentColor" d="m 351.2338,155.68633 v 166.22146 h 30.66653 q 10.96291,0 15.55548,4.29627 4.74072,4.14813 4.74072,10.96291 0,6.66664 -4.74072,10.96292 -4.59257,4.14813 -15.55548,4.14813 h -91.70328 q -10.96292,0 -15.70364,-4.14813 -4.59257,-4.29628 -4.59257,-11.11106 0,-6.66664 4.59257,-10.81477 4.74072,-4.29627 15.70364,-4.29627 h 30.66652 V 195.2417 l -27.11098,7.11108 q -6.51849,1.77777 -9.77774,1.77777 -5.77775,0 -10.07403,-4.59257 -4.14812,-4.59257 -4.14812,-11.25921 0,-6.07404 3.11109,-9.48143 3.1111,-3.55554 13.03698,-6.2222 z" />
<circle fill= "currentColor" cx="216" cy="330" r="24" />
</svg>
