<?xml version="1.0" encoding="UTF-8"?>
<svg aria-hidden="true" focusable="false" xmlns="http://www.w3.org/2000/svg" viewBox="0 0 448 512">
<rect x="15" y="15" width="418" height="482" ry="4" fill="none" stroke="currentColor" stroke-linejoin="round" stroke-width="30"/>
<path fill="currentColor" d="m 149.70405,157.70415 v 166.22146 h 30.66653 q 10.96291,0 15.55548,4.29627 4.74072,4.14813 4.74072,10.96292 0,6.66663 -4.74072,10.96291 -4.59257,4.14813 -15.55548,4.14813 H 88.667295 q -10.962912,0 -15.703631,-4.14813 -4.592571,-4.29628 -4.592571,-11.11106 0,-6.66664 4.592571,-10.81477 4.740719,-4.29627 15.703631,-4.29627 H 119.33382 V 197.25953 l -27.110986,7.11107 q -6.518488,1.77777 -9.777732,1.77777 -5.777751,0 -10.074028,-4.59257 -4.148129,-4.59257 -4.148129,-11.25921 0,-6.07404 3.111097,-9.48143 3.111097,-3.55554 13.036977,-6.2222 z" />
<path fill="currentColor" d="m 287.77748,323.92561 h 66.51821 q 5.48146,-4.44443 10.37032,-4.44443 6.96293,0 10.96292,4.59257 4.14813,4.59258 4.14813,15.70364 v 14.51845 H 241.40732 v -32.148 q 82.0737,-67.70339 99.11066,-87.11071 8.59255,-9.92588 8.59255,-18.81473 0,-11.11106 -9.77773,-19.55546 -9.62959,-8.59256 -25.77766,-8.59256 -16.29622,0 -27.11099,9.48144 -5.6296,5.03701 -9.03699,14.96289 -2.07407,6.2222 -5.77775,8.88885 -3.55554,2.66666 -8.88885,2.66666 -6.22219,0 -10.81477,-4.44443 -4.44442,-4.44442 -4.44442,-10.37032 0,-8.88885 8.14811,-22.22212 8.29626,-13.33327 23.99989,-21.33323 15.85178,-7.99997 34.37021,-7.99997 28.74061,0 47.11089,17.4814 18.37029,17.33326 18.37029,42.07388 0,12.59254 -5.33331,23.4073 -5.18516,10.66662 -25.18507,29.6295 -15.70363,14.96289 -61.1849,53.62938 z" />
</svg>
