<?xml version="1.0" encoding="UTF-8"?>
<svg role="img" version="1.1" viewBox="0 0 448 512" xmlns="http://www.w3.org/2000/svg">
<rect x="15" y="15" width="418" height="482" ry="4" fill="none" stroke="currentColor" stroke-linejoin="round" stroke-width="30"/>
<path fill="currentColor" d="m174.96 295.55h-71.233l-7.1519 17.88h7.1519q10.585 0 15.019 4.1481 4.5772 4.0051 4.5772 10.585 0 6.4367-4.5772 10.585-4.4342 4.0051-15.019 4.0051h-39.479q-10.585 0-15.019-4.0051-4.5772-4.1481-4.5772-10.728t4.7203-10.728q4.7203-4.1481 15.591-3.862l46.058-114.72h-19.167q-10.585 0-15.162-4.0051-4.4342-4.1481-4.4342-10.728 0-6.5798 4.4342-10.585 4.5772-4.1481 15.162-4.1481l63.366 0.14304 58.36 144.04q10.299 0 13.589 2.2886 6.5798 4.7202 6.5798 12.444 0 6.4367-4.4342 10.585-4.4342 4.0051-15.019 4.0051h-39.479q-10.585 0-15.162-4.0051-4.4342-4.1481-4.4342-10.728 0-6.4367 4.4342-10.442 4.5772-4.1481 15.162-4.1481h7.1519zm-12.158-29.323-23.601-58.073-23.744 58.073z"/>
<path file="currentColor" d="m263.31 313.43v-114.72h-4.5772q-10.585 0-15.162-4.0051-4.4342-4.1481-4.4342-10.728 0-6.5798 4.4342-10.585 4.5772-4.1481 15.162-4.1481h73.522q26.319 0 42.339 14.733 16.02 14.59 16.02 34.758 0 9.5836-3.719 18.023-3.719 8.4392-11.3 15.591 13.875 8.2962 20.741 19.453 7.0089 11.014 7.0089 25.032 0 11.157-5.0063 20.741-3.719 7.2949-9.1544 11.586-7.2949 6.0076-17.88 9.8696-10.585 3.719-26.462 3.719h-86.109q-10.585 0-15.162-4.0051-4.4342-4.1481-4.4342-10.728 0-6.4367 4.5772-10.442 4.5772-4.1481 15.019-4.1481zm29.323-72.091h32.184q17.308 0 28.751-8.7253 7.724-5.8646 7.724-14.59 0-7.7241-7.2949-13.446-7.2949-5.8646-23.172-5.8646h-38.191zm0 72.091h50.635q17.88 0 25.175-5.2924 5.5785-4.0051 5.5785-11.443 0-8.8684-11.014-17.451-11.014-8.5823-31.611-8.5823h-38.763z"/>
</svg>
