<?xml version="1.0" encoding="UTF-8"?>
<svg aria-hidden="true" focusable="false" xmlns="http://www.w3.org/2000/svg" viewBox="0 0 448 512">
<rect x="15" y="15" width="418" height="482" ry="4" fill="none" stroke="currentColor" stroke-linejoin="round" stroke-width="30"/>
<path fill="currentColor" d="m 244.60403,289.26944 q -1.48973,14.40044 -8.44153,21.10381 -6.70362,6.45536 -17.13148,6.45536 -11.17256,0 -18.37278,-7.69674 -6.95188,-7.94501 -6.95188,-26.31828 v -28.55246 q 60.3328,-23.09039 72.74667,-35.50425 12.41387,-12.41387 12.41387,-25.32458 0,-18.12436 -14.64887,-31.2835 -14.40044,-13.15914 -40.96633,-13.15914 -28.05561,0 -54.12546,12.91072 v 7.44848 q 0,18.12436 -7.20022,26.06985 -6.95188,7.69674 -18.37278,7.69674 -11.17256,0 -18.37278,-7.69674 -6.95188,-7.69674 -6.95188,-26.06985 v -40.96633 q 38.98056,-18.37278 60.58122,-24.33169 21.60067,-5.95892 44.69106,-5.958757 48.16655,0 77.21585,27.807997 29.04931,27.80801 29.04931,69.76722 0,29.79376 -17.62832,50.64997 -17.3799,20.85539 -67.53302,42.9529 z m 10.67652,98.3221 q 0,11.66941 -8.44153,19.11806 -8.1931,7.20022 -27.55957,7.20022 -19.36648,0 -27.80801,-7.20022 -8.1931,-7.44849 -8.1931,-19.11806 0,-11.66957 8.1931,-18.86962 8.19311,-7.44849 27.80801,-7.44849 19.36566,0 27.55957,7.44849 8.44153,7.20022 8.44153,18.86962 z" />
</svg>
